<svg width="82" height="82" viewBox="0 0 82 82" fill="none" xmlns="http://www.w3.org/2000/svg">
<rect width="82" height="82" rx="16" fill="#F8D57E" fill-opacity="0.2"/>
<path opacity="0.2" d="M36.7998 52.5502L29.4498 45.2002L26.2178 54.1088C26.1284 54.3425 26.1086 54.5972 26.1608 54.8419C26.213 55.0867 26.335 55.3111 26.5119 55.488C26.6889 55.665 26.9133 55.7869 27.1581 55.8391C27.4028 55.8914 27.6574 55.8716 27.8912 55.7822L36.7998 52.5502Z" fill="#F8D57E"/>
<path opacity="0.2" d="M36.4756 29.0366L36.6279 29.0718C36.7781 29.1161 36.9184 29.1878 37.041 29.2837L37.1572 29.3872L52.6123 44.8423C52.7235 44.9525 52.8126 45.0826 52.875 45.2251L52.9277 45.3716C52.972 45.5217 52.9876 45.6786 52.9736 45.8335L52.9502 45.9878C52.9166 46.1408 52.8537 46.2854 52.7666 46.4146L52.6719 46.5376C52.5688 46.6553 52.445 46.7526 52.3066 46.8237L52.1631 46.8862L45.4814 49.314L32.6846 36.5171L35.1143 29.8364C35.1677 29.6894 35.2484 29.5544 35.3516 29.438L35.4619 29.3276C35.5797 29.2245 35.7157 29.1455 35.8623 29.0933L36.0117 29.0503C36.1645 29.0167 36.3221 29.0118 36.4756 29.0366Z" fill="#F8D57E" stroke="#F8D57E" stroke-width="0.148438"/>
<path d="M26.2178 54.1086L35.0443 29.811C35.1199 29.6031 35.2468 29.4176 35.4132 29.2719C35.5796 29.1261 35.7802 29.0248 35.9963 28.9773C36.2123 28.9299 36.4369 28.9378 36.6491 29.0004C36.8613 29.0629 37.0542 29.1781 37.2099 29.3352L52.6646 44.7899C52.8217 44.9456 52.9369 45.1386 52.9995 45.3508C53.062 45.563 53.0699 45.7875 53.0225 46.0036C52.975 46.2196 52.8737 46.4202 52.728 46.5866C52.5822 46.7531 52.3968 46.8799 52.1888 46.9555L27.8912 55.7821C27.6574 55.8714 27.4028 55.8912 27.1581 55.839C26.9133 55.7868 26.6889 55.6648 26.5119 55.4879C26.335 55.3109 26.213 55.0865 26.1608 54.8418C26.1086 54.597 26.1284 54.3424 26.2178 54.1086V54.1086Z" stroke="#F8D57E" stroke-width="2.375" stroke-linecap="round" stroke-linejoin="round"/>
<path d="M47.563 31.8125C47.563 31.8125 47.563 27.875 51.5005 27.875C55.438 27.875 55.438 23.9375 55.438 23.9375" stroke="#F8D57E" stroke-width="2.375" stroke-linecap="round" stroke-linejoin="round"/>
<path d="M36.8002 52.5502L29.4502 45.2002" stroke="#F8D57E" stroke-width="2.375" stroke-linecap="round" stroke-linejoin="round"/>
<path d="M43.625 22.625V26.5625" stroke="#F8D57E" stroke-width="2.375" stroke-linecap="round" stroke-linejoin="round"/>
<path d="M55.437 38.375L58.062 41" stroke="#F8D57E" stroke-width="2.375" stroke-linecap="round" stroke-linejoin="round"/>
<path d="M55.437 33.125L59.3745 31.8125" stroke="#F8D57E" stroke-width="2.375" stroke-linecap="round" stroke-linejoin="round"/>
<path d="M32.5996 36.5376L45.4621 49.4001" stroke="#F8D57E" stroke-width="2.375" stroke-linecap="round" stroke-linejoin="round"/>
</svg>
