<svg width="82" height="82" viewBox="0 0 82 82" fill="none" xmlns="http://www.w3.org/2000/svg">
<rect width="82" height="82" rx="16" fill="#009379" fill-opacity="0.2"/>
<path opacity="0.2" d="M49.0391 31.2876C49.7901 32.6552 50.185 34.1898 50.1875 35.7501V36.3899C50.1901 36.9825 49.9897 37.5581 49.6195 38.0208C49.2493 38.4835 48.7318 38.8054 48.1531 38.9329C45.8055 39.4576 43.4054 39.7108 41 39.6876C38.5946 39.7108 36.1945 39.4576 33.8469 38.9329C33.2682 38.8054 32.7507 38.4835 32.3805 38.0208C32.0103 37.5581 31.8099 36.9825 31.8125 36.3899V35.8813C31.8135 34.2709 32.2317 32.6882 33.0266 31.2876C26.8742 32.5509 22.625 35.2579 22.625 38.3751C22.625 42.7228 30.8445 46.2501 41 46.2501C51.1555 46.2501 59.375 42.7228 59.375 38.3751C59.375 35.2579 55.1586 32.5673 49.0391 31.2876Z" fill="#009379"/>
<path d="M47.6938 50.9585L48.3337 54.8304" stroke="#009379" stroke-width="2.375" stroke-linecap="round" stroke-linejoin="round"/>
<path d="M41 51.5V56.75" stroke="#009379" stroke-width="2.375" stroke-linecap="round" stroke-linejoin="round"/>
<path d="M34.3063 50.9585L33.6665 54.8304" stroke="#009379" stroke-width="2.375" stroke-linecap="round" stroke-linejoin="round"/>
<path d="M49.0391 31.2876C55.1586 32.5673 59.375 35.2579 59.375 38.3751C59.375 42.7228 51.1555 46.2501 41 46.2501C30.8445 46.2501 22.625 42.7228 22.625 38.3751C22.625 35.2579 26.8742 32.5509 33.0266 31.2876" stroke="#009379" stroke-width="2.375" stroke-linecap="round" stroke-linejoin="round"/>
<path d="M31.8125 36.3901C31.8099 36.9826 32.0104 37.5582 32.3805 38.0209C32.7507 38.4836 33.2682 38.8055 33.8469 38.933C36.1945 39.4578 38.5946 39.711 41 39.6877C43.4054 39.711 45.8056 39.4578 48.1532 38.933C48.7318 38.8055 49.2494 38.4836 49.6195 38.0209C49.9897 37.5582 50.1902 36.9826 50.1875 36.3901V35.7502C50.1876 34.534 49.9462 33.3298 49.4773 32.2076C49.0085 31.0854 48.3214 30.0674 47.4561 29.2127C46.5908 28.3581 45.5643 27.6838 44.4364 27.2288C43.3084 26.7739 42.1013 26.5475 40.8852 26.5627C35.8321 26.6284 31.8125 30.8448 31.8125 35.8815V36.3901Z" stroke="#009379" stroke-width="2.375" stroke-linecap="round" stroke-linejoin="round"/>
</svg>
