<svg width="36" height="36" viewBox="0 0 36 36" fill="none" xmlns="http://www.w3.org/2000/svg">
<path fill-rule="evenodd" clip-rule="evenodd" d="M18 0C27.9414 0 36 8.26187 36 18.4553C36 26.6075 30.8484 33.5231 23.7006 35.9657C22.788 36.1475 22.464 35.5712 22.464 35.0798C22.464 34.4714 22.4856 32.4842 22.4856 30.0146C22.4856 28.2938 21.9096 27.1707 21.2634 26.5983C25.272 26.1411 29.484 24.5804 29.484 17.492C29.484 15.476 28.7856 13.8309 27.63 12.5385C27.8172 12.0723 28.4346 10.1951 27.4536 7.65352C27.4536 7.65352 25.9452 7.159 22.509 9.5458C21.0708 9.1372 19.53 8.93161 18 8.92441C16.47 8.93161 14.931 9.1372 13.4946 9.5458C10.0548 7.159 8.5428 7.65352 8.5428 7.65352C7.5654 10.1951 8.1828 12.0723 8.3682 12.5385C7.218 13.8309 6.51421 15.476 6.51421 17.492C6.51421 24.5624 10.7172 26.1471 14.715 26.6133C14.2002 27.0741 13.734 27.887 13.572 29.0804C12.546 29.552 9.93959 30.3682 8.33399 27.5476C8.33399 27.5476 7.3818 25.7743 5.5746 25.6447C5.5746 25.6447 3.8196 25.6214 5.4522 26.7662C5.4522 26.7662 6.6312 27.3332 7.4502 29.4662C7.4502 29.4662 8.50681 32.7601 13.5144 31.6441C13.5234 33.1867 13.5396 34.6406 13.5396 35.0798C13.5396 35.5676 13.2084 36.1385 12.3102 35.9675C5.15699 33.5285 0 26.6093 0 18.4553C0 8.26187 8.0604 0 18 0Z" fill="#D52453"/>
</svg>
