<svg width="166" height="26" viewBox="0 0 166 26" fill="none" xmlns="http://www.w3.org/2000/svg">
<path d="M62.8656 5.96V20H59.4456V11.58L56.3056 20H53.5456L50.3856 11.56V20H46.9656V5.96H51.0056L54.9456 15.68L58.8456 5.96H62.8656ZM64.645 14.4C64.645 13.2533 64.8583 12.2467 65.285 11.38C65.725 10.5133 66.3183 9.84667 67.065 9.38C67.8117 8.91333 68.645 8.68 69.565 8.68C70.3517 8.68 71.0383 8.84 71.625 9.16C72.225 9.48 72.685 9.9 73.005 10.42V8.84H76.425V20H73.005V18.42C72.6717 18.94 72.205 19.36 71.605 19.68C71.0183 20 70.3317 20.16 69.545 20.16C68.6383 20.16 67.8117 19.9267 67.065 19.46C66.3183 18.98 65.725 18.3067 65.285 17.44C64.8583 16.56 64.645 15.5467 64.645 14.4ZM73.005 14.42C73.005 13.5667 72.765 12.8933 72.285 12.4C71.8183 11.9067 71.245 11.66 70.565 11.66C69.885 11.66 69.305 11.9067 68.825 12.4C68.3583 12.88 68.125 13.5467 68.125 14.4C68.125 15.2533 68.3583 15.9333 68.825 16.44C69.305 16.9333 69.885 17.18 70.565 17.18C71.245 17.18 71.8183 16.9333 72.285 16.44C72.765 15.9467 73.005 15.2733 73.005 14.42ZM85.6992 8.72C87.0059 8.72 88.0459 9.14667 88.8192 10C89.6059 10.84 89.9992 12 89.9992 13.48V20H86.5992V13.94C86.5992 13.1933 86.4059 12.6133 86.0192 12.2C85.6325 11.7867 85.1125 11.58 84.4592 11.58C83.8059 11.58 83.2859 11.7867 82.8992 12.2C82.5125 12.6133 82.3192 13.1933 82.3192 13.94V20H78.8992V8.84H82.3192V10.32C82.6659 9.82667 83.1325 9.44 83.7192 9.16C84.3059 8.86667 84.9659 8.72 85.6992 8.72ZM91.6958 14.4C91.6958 13.2533 91.9091 12.2467 92.3358 11.38C92.7758 10.5133 93.3691 9.84667 94.1158 9.38C94.8624 8.91333 95.6958 8.68 96.6158 8.68C97.3491 8.68 98.0158 8.83333 98.6158 9.14C99.2291 9.44667 99.7091 9.86 100.056 10.38V5.2H103.476V20H100.056V18.4C99.7358 18.9333 99.2758 19.36 98.6758 19.68C98.0891 20 97.4024 20.16 96.6158 20.16C95.6958 20.16 94.8624 19.9267 94.1158 19.46C93.3691 18.98 92.7758 18.3067 92.3358 17.44C91.9091 16.56 91.6958 15.5467 91.6958 14.4ZM100.056 14.42C100.056 13.5667 99.8158 12.8933 99.3358 12.4C98.8691 11.9067 98.2958 11.66 97.6158 11.66C96.9358 11.66 96.3558 11.9067 95.8758 12.4C95.4091 12.88 95.1758 13.5467 95.1758 14.4C95.1758 15.2533 95.4091 15.9333 95.8758 16.44C96.3558 16.9333 96.9358 17.18 97.6158 17.18C98.2958 17.18 98.8691 16.9333 99.3358 16.44C99.8158 15.9467 100.056 15.2733 100.056 14.42ZM105.27 14.4C105.27 13.2533 105.483 12.2467 105.91 11.38C106.35 10.5133 106.943 9.84667 107.69 9.38C108.437 8.91333 109.27 8.68 110.19 8.68C110.977 8.68 111.663 8.84 112.25 9.16C112.85 9.48 113.31 9.9 113.63 10.42V8.84H117.05V20H113.63V18.42C113.297 18.94 112.83 19.36 112.23 19.68C111.643 20 110.957 20.16 110.17 20.16C109.263 20.16 108.437 19.9267 107.69 19.46C106.943 18.98 106.35 18.3067 105.91 17.44C105.483 16.56 105.27 15.5467 105.27 14.4ZM113.63 14.42C113.63 13.5667 113.39 12.8933 112.91 12.4C112.443 11.9067 111.87 11.66 111.19 11.66C110.51 11.66 109.93 11.9067 109.45 12.4C108.983 12.88 108.75 13.5467 108.75 14.4C108.75 15.2533 108.983 15.9333 109.45 16.44C109.93 16.9333 110.51 17.18 111.19 17.18C111.87 17.18 112.443 16.9333 112.91 16.44C113.39 15.9467 113.63 15.2733 113.63 14.42ZM118.844 14.42C118.844 13.26 119.078 12.2467 119.544 11.38C120.024 10.5133 120.684 9.84667 121.524 9.38C122.378 8.91333 123.351 8.68 124.444 8.68C125.844 8.68 127.011 9.04667 127.944 9.78C128.891 10.5133 129.511 11.5467 129.804 12.88H126.164C125.858 12.0267 125.264 11.6 124.384 11.6C123.758 11.6 123.258 11.8467 122.884 12.34C122.511 12.82 122.324 13.5133 122.324 14.42C122.324 15.3267 122.511 16.0267 122.884 16.52C123.258 17 123.758 17.24 124.384 17.24C125.264 17.24 125.858 16.8133 126.164 15.96H129.804C129.511 17.2667 128.891 18.2933 127.944 19.04C126.998 19.7867 125.831 20.16 124.444 20.16C123.351 20.16 122.378 19.9267 121.524 19.46C120.684 18.9933 120.024 18.3267 119.544 17.46C119.078 16.5933 118.844 15.58 118.844 14.42ZM130.954 14.4C130.954 13.2533 131.167 12.2467 131.594 11.38C132.034 10.5133 132.627 9.84667 133.374 9.38C134.12 8.91333 134.954 8.68 135.874 8.68C136.66 8.68 137.347 8.84 137.934 9.16C138.534 9.48 138.994 9.9 139.314 10.42V8.84H142.734V20H139.314V18.42C138.98 18.94 138.514 19.36 137.914 19.68C137.327 20 136.64 20.16 135.854 20.16C134.947 20.16 134.12 19.9267 133.374 19.46C132.627 18.98 132.034 18.3067 131.594 17.44C131.167 16.56 130.954 15.5467 130.954 14.4ZM139.314 14.42C139.314 13.5667 139.074 12.8933 138.594 12.4C138.127 11.9067 137.554 11.66 136.874 11.66C136.194 11.66 135.614 11.9067 135.134 12.4C134.667 12.88 134.434 13.5467 134.434 14.4C134.434 15.2533 134.667 15.9333 135.134 16.44C135.614 16.9333 136.194 17.18 136.874 17.18C137.554 17.18 138.127 16.9333 138.594 16.44C139.074 15.9467 139.314 15.2733 139.314 14.42ZM148.628 10.7C149.028 10.0867 149.528 9.60667 150.128 9.26C150.728 8.9 151.394 8.72 152.128 8.72V12.34H151.188C150.334 12.34 149.694 12.5267 149.268 12.9C148.841 13.26 148.628 13.9 148.628 14.82V20H145.208V8.84H148.628V10.7ZM164.782 8.84V20H161.362V18.48C161.016 18.9733 160.542 19.3733 159.942 19.68C159.356 19.9733 158.702 20.12 157.982 20.12C157.129 20.12 156.376 19.9333 155.722 19.56C155.069 19.1733 154.562 18.62 154.202 17.9C153.842 17.18 153.662 16.3333 153.662 15.36V8.84H157.062V14.9C157.062 15.6467 157.256 16.2267 157.642 16.64C158.029 17.0533 158.549 17.26 159.202 17.26C159.869 17.26 160.396 17.0533 160.782 16.64C161.169 16.2267 161.362 15.6467 161.362 14.9V8.84H164.782Z" fill="#1E1E1E"/>
<path d="M41.3771 13.1432C41.1996 12.9002 40.9617 12.6872 40.6773 12.5166C40.3929 12.346 40.0678 12.2213 39.7208 12.1497C38.4622 11.8972 37.1616 11.7958 35.8637 11.8488C36.5597 9.15814 36.0377 7.03005 35.5053 5.76811C35.2931 5.24973 34.8407 4.8115 34.2364 4.53885C33.632 4.26621 32.919 4.17869 32.2363 4.29336C30.4659 4.60046 28.7825 5.15723 27.2692 5.93619C26.1607 4.17229 24.5471 2.63033 22.5526 1.42925C22.0693 1.14681 21.4814 0.994141 20.8772 0.994141C20.273 0.994141 19.6851 1.14681 19.2018 1.42925C17.2069 2.62998 15.5931 4.17202 14.4852 5.93619C12.9719 5.15723 11.2885 4.60046 9.51812 4.29336C8.83543 4.17869 8.12239 4.26621 7.51802 4.53885C6.91365 4.8115 6.46126 5.24973 6.24905 5.76811C5.72712 7.03005 5.20518 9.15679 5.89066 11.8488C4.5928 11.7958 3.29215 11.8972 2.03355 12.1497C1.68661 12.2213 1.36146 12.346 1.07709 12.5166C0.792709 12.6872 0.554807 12.9002 0.377269 13.1432C0.191469 13.3922 0.0711623 13.6674 0.0233692 13.953C-0.0244239 14.2385 0.00125322 14.5287 0.0989026 14.8064C0.688691 16.5102 2.49981 19.7511 7.98536 22.3049C13.4709 24.8586 18.2901 24.8504 20.8859 24.8504C23.4817 24.8504 28.3096 24.8504 33.7603 22.3049C39.2459 19.7511 41.057 16.5102 41.6468 14.8064C41.7457 14.5291 41.7729 14.2392 41.7266 13.9537C41.6803 13.6681 41.5615 13.3926 41.3771 13.1432ZM8.89701 6.435C8.89909 6.42827 8.90439 6.42242 8.91183 6.41864C8.91927 6.41486 8.92829 6.41344 8.93703 6.41467C10.5559 6.69947 12.0836 7.23764 13.4274 7.9965C12.8157 9.55608 12.5118 11.179 12.5262 12.8098C12.5262 15.3499 13.1821 17.4184 14.1112 19.0829C12.7904 18.053 11.6476 16.8933 10.7116 15.6332C7.57651 11.3798 8.22893 8.04259 8.89701 6.435ZM9.41895 20.4438C4.77893 18.2859 3.27402 15.64 2.7834 14.2371C4.06355 13.9915 5.39197 13.9376 6.69792 14.0785C7.13385 14.9884 7.66633 15.8684 8.28983 16.7095C9.82066 18.7656 11.8261 20.5835 14.2051 22.0717C12.5229 21.6948 10.9114 21.1475 9.41199 20.4438H9.41895ZM20.8772 22.4648C19.254 21.5241 15.3099 18.6383 15.3099 12.8098C15.3099 7.05309 19.2035 4.14425 20.8772 3.16289C22.5509 4.14697 26.4445 7.05581 26.4445 12.8125C26.4445 18.6383 22.5004 21.5241 20.8772 22.4648ZM28.327 7.9965C29.6709 7.23813 31.1986 6.70042 32.8174 6.41602C32.8261 6.41479 32.8351 6.41621 32.8426 6.41999C32.85 6.42377 32.8553 6.42963 32.8574 6.43636C33.5255 8.04259 34.1779 11.3798 31.0428 15.6332C30.1077 16.895 28.9648 18.0561 27.6432 19.087C28.5723 17.4252 29.2282 15.354 29.2282 12.8138C29.2431 11.1817 28.9393 9.55738 28.327 7.9965ZM38.971 14.2398C38.4891 15.6292 36.9876 18.2805 32.3441 20.4438C30.8446 21.147 29.2332 21.6938 27.551 22.0704C29.93 20.5822 31.9355 18.7642 33.4663 16.7081C34.0898 15.8671 34.6223 14.9871 35.0582 14.0771C36.3638 13.937 37.6917 13.9918 38.971 14.2384V14.2398Z" fill="#1E1E1E"/>
</svg>
